<?xml version="1.0" encoding="UTF-8"?>
<svg version="1.1" xmlns="http://www.w3.org/2000/svg" width="211" height="74">
<path d="M0 0 C2.31 0 4.62 0 7 0 C7 20.13 7 40.26 7 61 C4.69 61 2.38 61 0 61 C0 57.37 0 53.74 0 50 C-4.62 50 -9.24 50 -14 50 C-14 53.63 -14 57.26 -14 61 C-16.31 61 -18.62 61 -21 61 C-21 47.8 -21 34.6 -21 21 C-18.69 21 -16.38 21 -14 21 C-14 28.26 -14 35.52 -14 43 C-9.38 43 -4.76 43 0 43 C0 28.81 0 14.62 0 0 Z " fill="#FFFFFF" transform="translate(58,5)"/>
<path d="M0 0 C2.31 0 4.62 0 7 0 C7 3.63 7 7.26 7 11 C11.62 11 16.24 11 21 11 C21 7.37 21 3.74 21 0 C23.31 0 25.62 0 28 0 C28 13.2 28 26.4 28 40 C25.69 40 23.38 40 21 40 C21 32.74 21 25.48 21 18 C16.38 18 11.76 18 7 18 C7 32.19 7 46.38 7 61 C4.69 61 2.38 61 0 61 C0 40.87 0 20.74 0 0 Z " fill="#FFFFFF" transform="translate(27,5)"/>
<path d="M0 0 C0.86407471 0.0628418 1.72814941 0.12568359 2.6184082 0.19042969 C3.55620117 0.2484375 4.49399414 0.30644531 5.46020508 0.36621094 C6.43666992 0.44742187 7.41313477 0.52863281 8.41918945 0.61230469 C9.40725586 0.67804687 10.39532227 0.74378906 11.41333008 0.81152344 C13.85470254 0.97664042 16.29308563 1.1609085 18.73168945 1.36230469 C18.73168945 2.68230469 18.73168945 4.00230469 18.73168945 5.36230469 C18.07168945 5.36230469 17.41168945 5.36230469 16.73168945 5.36230469 C16.73168945 8.99230469 16.73168945 12.62230469 16.73168945 16.36230469 C17.72168945 16.69230469 18.71168945 17.02230469 19.73168945 17.36230469 C19.40168945 19.34230469 19.07168945 21.32230469 18.73168945 23.36230469 C13.96075989 24.59633331 9.306995 24.47495581 4.41918945 24.42480469 C3.58323242 24.42029297 2.74727539 24.41578125 1.88598633 24.41113281 C-0.16547704 24.39941016 -2.21690328 24.38147672 -4.26831055 24.36230469 C-4.26831055 23.04230469 -4.26831055 21.72230469 -4.26831055 20.36230469 C-3.60831055 20.36230469 -2.94831055 20.36230469 -2.26831055 20.36230469 C-2.26831055 19.70230469 -2.26831055 19.04230469 -2.26831055 18.36230469 C-3.25831055 18.03230469 -4.24831055 17.70230469 -5.26831055 17.36230469 C-5.26831055 16.70230469 -5.26831055 16.04230469 -5.26831055 15.36230469 C-4.60831055 15.03230469 -3.94831055 14.70230469 -3.26831055 14.36230469 C-3.44749023 13.68683594 -3.62666992 13.01136719 -3.8112793 12.31542969 C-4.02397461 11.42339844 -4.23666992 10.53136719 -4.45581055 9.61230469 C-4.67624023 8.73058594 -4.89666992 7.84886719 -5.1237793 6.94042969 C-5.26831055 4.36230469 -5.26831055 4.36230469 -4.08276367 2.21191406 C-2.26831055 0.36230469 -2.26831055 0.36230469 0 0 Z M10.73168945 11.36230469 C10.73168945 12.35230469 10.73168945 13.34230469 10.73168945 14.36230469 C9.74168945 14.85730469 9.74168945 14.85730469 8.73168945 15.36230469 C9.72168945 15.36230469 10.71168945 15.36230469 11.73168945 15.36230469 C11.40168945 14.04230469 11.07168945 12.72230469 10.73168945 11.36230469 Z M10.73168945 18.36230469 C10.73168945 19.02230469 10.73168945 19.68230469 10.73168945 20.36230469 C11.39168945 20.03230469 12.05168945 19.70230469 12.73168945 19.36230469 C12.07168945 19.03230469 11.41168945 18.70230469 10.73168945 18.36230469 Z " fill="#FFFFFF" transform="translate(131.268310546875,12.6376953125)"/>
<path d="M0 0 C1.32 0 2.64 0 4 0 C4 0.66 4 1.32 4 2 C8.95 1.34 13.9 0.68 19 0 C19.33 1.32 19.66 2.64 20 4 C17.69 4.33 15.38 4.66 13 5 C13 5.66 13 6.32 13 7 C15.31 7 17.62 7 20 7 C20 8.65 20 10.3 20 12 C19.34 12 18.68 12 18 12 C18 15.96 18 19.92 18 24 C16.68 24 15.36 24 14 24 C13.67 22.02 13.34 20.04 13 18 C12.01 19.98 11.02 21.96 10 24 C6.125 23.125 6.125 23.125 5 22 C4.34 22.66 3.68 23.32 3 24 C0.1711755 24.36266981 -1.354262 24.47793602 -3.68359375 22.75390625 C-5 21 -5 21 -5.0390625 18.9140625 C-4.90242187 18.15867187 -4.76578125 17.40328125 -4.625 16.625 C-4.08403428 13.06843814 -4.2165874 10.52535672 -5 7 C-4.5625 4.1875 -4.5625 4.1875 -4 2 C-2.68 2 -1.36 2 0 2 C0 1.34 0 0.68 0 0 Z M4 11 C4 11.33 4 11.66 4 12 C5.65 12 7.3 12 9 12 C9 11.67 9 11.34 9 11 C7.35 11 5.7 11 4 11 Z M7 15 C7.66 15.66 8.32 16.32 9 17 C9 16.34 9 15.68 9 15 C8.34 15 7.68 15 7 15 Z M4 18 C5 20 5 20 5 20 Z " fill="#FFFFFF" transform="translate(157,13)"/>
<path d="M0 0 C0.33 0.66 0.66 1.32 1 2 C1.66 2 2.32 2 3 2 C3.33 2.66 3.66 3.32 4 4 C4.33 2.68 4.66 1.36 5 0 C6.32 0 7.64 0 9 0 C9 0.99 9 1.98 9 3 C10.65 2.34 12.3 1.68 14 1 C15.87525531 4.16449334 16.1825313 6.34937407 16 10 C16 12.02357323 16.00162697 14.04790529 16.0703125 16.0703125 C16.1229057 18.04631417 16.06373141 20.02432621 16 22 C14 24 14 24 10.5 24.25 C7 24 7 24 5 22 C4.8046875 19.6875 4.8046875 19.6875 4.875 17 C4.89304688 16.113125 4.91109375 15.22625 4.9296875 14.3125 C4.95289063 13.549375 4.97609375 12.78625 5 12 C5 11.34 5 10.68 5 10 C4.93941406 10.92683594 4.87882813 11.85367187 4.81640625 12.80859375 C4.73261719 14.00613281 4.64882812 15.20367187 4.5625 16.4375 C4.48128906 17.63246094 4.40007812 18.82742187 4.31640625 20.05859375 C4 23 4 23 3 24 C1.31391034 24.07205511 -0.37500659 24.08386068 -2.0625 24.0625 C-2.98160156 24.05347656 -3.90070313 24.04445313 -4.84765625 24.03515625 C-5.55792969 24.02355469 -6.26820313 24.01195313 -7 24 C-7.27646774 20.93781928 -7.52190671 17.8783422 -7.75 14.8125 C-7.83121094 13.94818359 -7.91242188 13.08386719 -7.99609375 12.19335938 C-8.2880605 7.95984146 -8.37311369 5.66975588 -6.265625 1.88671875 C-4 0 -4 0 0 0 Z M11 6 C10.34 6.66 9.68 7.32 9 8 C9.99 8 10.98 8 12 8 C11.67 7.34 11.34 6.68 11 6 Z M9 12 C9 12.66 9 13.32 9 14 C10.32 13.34 11.64 12.68 13 12 C11.68 12 10.36 12 9 12 Z M11 17 C10.01 17.495 10.01 17.495 9 18 C9 18.66 9 19.32 9 20 C9.99 20 10.98 20 12 20 C11.67 19.01 11.34 18.02 11 17 Z " fill="#FFFFFF" transform="translate(187,13)"/>
<path d="M0 0 C0 2.31 0 4.62 0 7 C-0.93972656 7.36351562 -0.93972656 7.36351562 -1.8984375 7.734375 C-2.71570313 8.06953125 -3.53296875 8.4046875 -4.375 8.75 C-5.18710937 9.07484375 -5.99921875 9.3996875 -6.8359375 9.734375 C-9.41075665 11.24022591 -10.04973051 12.20028128 -11 15 C-11.31337208 17.22384795 -11.31337208 17.22384795 -11.25 19.5 C-11.25515625 20.2528125 -11.2603125 21.005625 -11.265625 21.78125 C-10.95783122 24.35223337 -10.46602786 25.85941944 -9 28 C-6.84255767 29.33346029 -6.84255767 29.33346029 -4.375 30.25 C-3.14910156 30.75273438 -3.14910156 30.75273438 -1.8984375 31.265625 C-1.27195312 31.50796875 -0.64546875 31.7503125 0 32 C0 34.31 0 36.62 0 39 C-6.4698853 38.88446633 -9.49172279 37.33618925 -14.23828125 32.984375 C-19.01312338 27.60606058 -19.65663228 23.36386101 -19.47265625 16.30078125 C-18.72941944 11.1104085 -16.72176378 7.65094798 -13 4 C-8.94497926 1.09113522 -5.07852391 -0.63481549 0 0 Z " fill="#FFFFFF" transform="translate(24,16)"/>
<path d="M0 0 C6.4590772 0.11534066 9.663341 1.61120588 14.30078125 6.12109375 C18.81961523 11.11778144 19.60578264 15.67260757 19.41796875 22.24609375 C18.561965 27.88611849 15.54074487 31.53629237 11.5 35.375 C7.4658792 37.99717852 4.85173683 39 0 39 C0 36.69 0 34.38 0 32 C0.54269531 31.75765625 1.08539063 31.5153125 1.64453125 31.265625 C7.37803421 28.78131988 7.37803421 28.78131988 11 24 C11.6419264 20.18491471 11.83342117 16.68465049 10.0859375 13.15234375 C7.29369284 9.48639672 4.40959933 8.02548822 0 7 C0 4.69 0 2.38 0 0 Z " fill="#FFFFFF" transform="translate(68,16)"/>
<path d="M0 0 C1.65 0 3.3 0 5 0 C5 1.32 5 2.64 5 4 C7.97 4 10.94 4 14 4 C14 8.62 14 13.24 14 18 C11.03 17.67 8.06 17.34 5 17 C5 19.31 5 21.62 5 24 C3.35 24 1.7 24 0 24 C0 22.02 0 20.04 0 18 C-1.32 17.67 -2.64 17.34 -4 17 C-4 17.66 -4 18.32 -4 19 C-5.32 19 -6.64 19 -8 19 C-8 14.05 -8 9.1 -8 4 C-5.36 3.67 -2.72 3.34 0 3 C0 2.01 0 1.02 0 0 Z M-4 8 C-4 9.32 -4 10.64 -4 12 C-2.35 12 -0.7 12 1 12 C1 10.68 1 9.36 1 8 C-0.65 8 -2.3 8 -4 8 Z M5 8 C5 9.32 5 10.64 5 12 C6.65 12 8.3 12 10 12 C10 10.68 10 9.36 10 8 C8.35 8 6.7 8 5 8 Z " fill="#FFFFFF" transform="translate(109,13)"/>
<path d="M0 0 C3.375 -0.125 3.375 -0.125 7 0 C7.66 0.66 8.32 1.32 9 2 C10.2065625 1.4740625 10.2065625 1.4740625 11.4375 0.9375 C16.8370146 -0.4834249 21.73990396 0.24663465 27 2 C27.804375 1.835 28.60875 1.67 29.4375 1.5 C32.15172368 0.97039538 33.38207884 1.34551971 36 2 C37.67099977 1.68911632 39.33871537 1.35919668 41 1 C42 2 42 2 42.0625 5.0625 C42.041875 6.031875 42.02125 7.00125 42 8 C40.98679687 7.96519531 40.98679687 7.96519531 39.953125 7.9296875 C39.06109375 7.91164063 38.1690625 7.89359375 37.25 7.875 C36.36828125 7.85179687 35.4865625 7.82859375 34.578125 7.8046875 C31.87117062 8.0097598 30.37397689 8.771725 28 10 C27.34 9.67 26.68 9.34 26 9 C26 8.34 26 7.68 26 7 C25.01 7.33 24.02 7.66 23 8 C22.34 7.67 21.68 7.34 21 7 C21 6.01 21 5.02 21 4 C20.67 5.32 20.34 6.64 20 8 C13.25 8.125 13.25 8.125 11 7 C10.01 8.485 10.01 8.485 9 10 C8.34 10 7.68 10 7 10 C7 9.34 7 8.68 7 8 C4.69 8 2.38 8 0 8 C0 5.36 0 2.72 0 0 Z M7 5 C8 7 8 7 8 7 Z " fill="#FFFFFF" transform="translate(128,44)"/>
<path d="M0 0 C2.41367645 0.35128685 2.41367645 0.35128685 5.3046875 0.2890625 C6.2946875 0.6190625 7.2846875 0.9490625 8.3046875 1.2890625 C8.6346875 0.6290625 8.9646875 -0.0309375 9.3046875 -0.7109375 C9.9646875 -0.7109375 10.6246875 -0.7109375 11.3046875 -0.7109375 C11.6346875 -0.0509375 11.9646875 0.6090625 12.3046875 1.2890625 C16.25730201 1.39128739 16.25730201 1.39128739 19.9296875 0.7265625 C23.3046875 0.2890625 23.3046875 0.2890625 25.3046875 1.2890625 C26.2946875 0.9590625 27.2846875 0.6290625 28.3046875 0.2890625 C27.78200284 3.05182427 27.19599163 5.6151501 26.3046875 8.2890625 C23.3346875 8.2890625 20.3646875 8.2890625 17.3046875 8.2890625 C16.8096875 7.2990625 16.8096875 7.2990625 16.3046875 6.2890625 C15.5621875 6.4540625 14.8196875 6.6190625 14.0546875 6.7890625 C10.4562711 7.44332003 6.95748784 7.2890625 3.3046875 7.2890625 C1.81247606 7.31092271 0.32028853 7.3344583 -1.171875 7.359375 C-2.88801752 7.37791358 -4.60416351 7.39613259 -6.3203125 7.4140625 C-7.19171875 7.43082031 -8.063125 7.44757812 -8.9609375 7.46484375 C-9.79367188 7.47128906 -10.62640625 7.47773437 -11.484375 7.484375 C-12.62447021 7.50008545 -12.62447021 7.50008545 -13.78759766 7.51611328 C-15.6953125 7.2890625 -15.6953125 7.2890625 -17.6953125 5.2890625 C-17.3203125 3.1640625 -17.3203125 3.1640625 -16.6953125 1.2890625 C-15.3753125 1.2890625 -14.0553125 1.2890625 -12.6953125 1.2890625 C-11.9940625 0.9384375 -11.2928125 0.5878125 -10.5703125 0.2265625 C-6.82878431 -0.99350104 -3.858827 -0.50434517 0 0 Z M22.3046875 3.2890625 C23.3046875 5.2890625 23.3046875 5.2890625 23.3046875 5.2890625 Z " fill="#FFFFFF" transform="translate(127.6953125,55.7109375)"/>
<path d="M0 0 C2.75 0.1875 2.75 0.1875 5.25 1.25 C8.25165364 2.37562012 9.69277262 1.97140446 12.75 1.1875 C16.75 1.1875 16.75 1.1875 19.8125 1.75 C22.8017137 2.42166741 22.8017137 2.42166741 25.75 1.1875 C27.08180544 1.12037271 28.4166976 1.10227325 29.75 1.125 C30.430625 1.13402344 31.11125 1.14304688 31.8125 1.15234375 C32.451875 1.16394531 33.09125 1.17554688 33.75 1.1875 C34.74 1.1875 35.73 1.1875 36.75 1.1875 C37.67091738 3.76606865 37.93506902 4.7818287 36.7734375 7.328125 C36.43570313 7.94171875 36.09796875 8.5553125 35.75 9.1875 C35.04875 9.10371094 34.3475 9.01992188 33.625 8.93359375 C29.14155152 8.45235404 24.91435329 8.0007594 20.4375 8.6875 C16.82814965 9.17690344 14.28360884 8.91028363 10.75 8.1875 C9.43 8.1875 8.11 8.1875 6.75 8.1875 C6.09 8.001875 5.43 7.81625 4.75 7.625 C2.72195304 7.02189452 2.72195304 7.02189452 0.625 7.75 C0.00625 7.894375 -0.6125 8.03875 -1.25 8.1875 C-3.25 6.1875 -3.25 6.1875 -3.4375 3.625 C-3.19449193 0.46589513 -3.14379532 0.26198294 0 0 Z M-1.25 2.1875 C-1.25 3.1775 -1.25 4.1675 -1.25 5.1875 C0.07 4.5275 1.39 3.8675 2.75 3.1875 C1.43 2.8575 0.11 2.5275 -1.25 2.1875 Z M32.75 5.1875 C33.75 7.1875 33.75 7.1875 33.75 7.1875 Z " fill="#FFFFFF" transform="translate(161.25,54.8125)"/>
<path d="M0 0 C3.38216931 -0.16105568 5.84034271 -0.0553913 9.0625 1.0625 C12.39817895 2.12707839 13.65021264 1.77902032 17 1 C20.00175875 0.8990559 22.99746206 0.94939543 26 1 C26.99 1 27.98 1 29 1 C29.33 1 29.66 1 30 1 C29.75 4.375 29.75 4.375 29 8 C27.25 9.5 27.25 9.5 25 10 C22.25 9.625 22.25 9.625 20 9 C20 7.35 20 5.7 20 4 C19.67 5.32 19.34 6.64 19 8 C15.66666667 8 12.33333333 8 9 8 C8.30519531 8.01160156 7.61039063 8.02320313 6.89453125 8.03515625 C4.92982198 8.06095919 2.96461472 8.0322068 1 8 C0 7 0 7 -0.0625 3.4375 C-0.041875 2.303125 -0.02125 1.16875 0 0 Z M2 2 C2.99 2.33 3.98 2.66 5 3 C5.33 3.66 5.66 4.32 6 5 C6 4.01 6 3.02 6 2 C4.68 2 3.36 2 2 2 Z M25 4 C26 8 26 8 26 8 Z " fill="#FFFFFF" transform="translate(173,44)"/>
<path d="M0 0 C1.91015625 0.23046875 1.91015625 0.23046875 3.91015625 2.23046875 C4.24015625 1.57046875 4.57015625 0.91046875 4.91015625 0.23046875 C6.89583333 0.78385417 8.88151042 1.33723958 10.8671875 1.890625 C13.10259784 2.42610692 13.10259784 2.42610692 15.91015625 1.23046875 C16.57015625 1.56046875 17.23015625 1.89046875 17.91015625 2.23046875 C17.91015625 4.21046875 17.91015625 6.19046875 17.91015625 8.23046875 C14.24348958 8.23046875 10.57682292 8.23046875 6.91015625 8.23046875 C5.93820313 8.24207031 4.96625 8.25367188 3.96484375 8.265625 C2.91554688 8.27464844 1.86625 8.28367187 0.78515625 8.29296875 C-0.26929687 8.30457031 -1.32375 8.31617188 -2.41015625 8.328125 C-5.08984375 8.23046875 -5.08984375 8.23046875 -7.08984375 7.23046875 C-7.13238731 5.23092129 -7.13065158 3.23005239 -7.08984375 1.23046875 C-5.19495423 -0.66442077 -2.51845229 0.05027763 0 0 Z M-5.08984375 2.23046875 C-5.08984375 3.22046875 -5.08984375 4.21046875 -5.08984375 5.23046875 C-3.76984375 4.57046875 -2.44984375 3.91046875 -1.08984375 3.23046875 C-2.40984375 2.90046875 -3.72984375 2.57046875 -5.08984375 2.23046875 Z " fill="#FFFFFF" transform="translate(108.08984375,43.76953125)"/>
<path d="M0 0 C2.31 0 4.62 0 7 0 C7 0.66 7 1.32 7 2 C6.34 2 5.68 2 5 2 C5 3.98 5 5.96 5 8 C4.01 8 3.02 8 2 8 C2 6.35 2 4.7 2 3 C1.34 2.67 0.68 2.34 0 2 C0 1.34 0 0.68 0 0 Z " fill="#FFFFFF" transform="translate(104,55)"/>
</svg>
